# xmcd CD database file
#
# Track frame offsets:
#	150
#	33400
#	59725
#	82750
#	116952
#	143762
#	176902
#	211640
#	253757
#	280240
#
# Disc length: 4139 seconds
#
# Revision: 0
# Processed by: cddbd v1.4PL0 Copyright (c) Steve Scherf et al.
# Submitted via: CDex 1.50
#
DISCID=9210290a
DTITLE=Carl Saunders - Out Of The Blue
DYEAR=1995
DGENRE=Jazz
TTITLE0=Stella By Starlight
TTITLE1=We'll Be Together Again
TTITLE2=Prudence
TTITLE3=Personas Gratus
TTITLE4=Sad Happiness
TTITLE5=I Should Care
TTITLE6=Love For Sale
TTITLE7=Haunted Heart
TTITLE8=Minute Waltz
TTITLE9=This Is The Blues
EXTD=YEAR: 1995
EXTT0=
EXTT1=
EXTT2=
EXTT3=
EXTT4=
EXTT5=
EXTT6=
EXTT7=
EXTT8=
EXTT9=
PLAYORDER=
